<svg id="visual" viewBox="0 0 900 600" width="900" height="600" xmlns="http://www.w3.org/2000/svg" xmlns:xlink="http://www.w3.org/1999/xlink" version="1.1"><rect x="0" y="0" width="900" height="600" fill="#202731"></rect><path d="M0 392L21.5 389C43 386 86 380 128.8 387.7C171.7 395.3 214.3 416.7 257.2 420.7C300 424.7 343 411.3 385.8 412.7C428.7 414 471.3 430 514.2 428.2C557 426.3 600 406.7 642.8 392.5C685.7 378.3 728.3 369.7 771.2 368.7C814 367.7 857 374.3 878.5 377.7L900 381L900 601L878.5 601C857 601 814 601 771.2 601C728.3 601 685.7 601 642.8 601C600 601 557 601 514.2 601C471.3 601 428.7 601 385.8 601C343 601 300 601 257.2 601C214.3 601 171.7 601 128.8 601C86 601 43 601 21.5 601L0 601Z" fill="#c62368"></path><path d="M0 474L21.5 473.7C43 473.3 86 472.7 128.8 472.3C171.7 472 214.3 472 257.2 472.5C300 473 343 474 385.8 464.5C428.7 455 471.3 435 514.2 425.2C557 415.3 600 415.7 642.8 421.5C685.7 427.3 728.3 438.7 771.2 444C814 449.3 857 448.7 878.5 448.3L900 448L900 601L878.5 601C857 601 814 601 771.2 601C728.3 601 685.7 601 642.8 601C600 601 557 601 514.2 601C471.3 601 428.7 601 385.8 601C343 601 300 601 257.2 601C214.3 601 171.7 601 128.8 601C86 601 43 601 21.5 601L0 601Z" fill="#db345a"></path><path d="M0 508L21.5 502C43 496 86 484 128.8 473.2C171.7 462.3 214.3 452.7 257.2 451.2C300 449.7 343 456.3 385.8 466.3C428.7 476.3 471.3 489.7 514.2 494.7C557 499.7 600 496.3 642.8 497.5C685.7 498.7 728.3 504.3 771.2 499.5C814 494.7 857 479.3 878.5 471.7L900 464L900 601L878.5 601C857 601 814 601 771.2 601C728.3 601 685.7 601 642.8 601C600 601 557 601 514.2 601C471.3 601 428.7 601 385.8 601C343 601 300 601 257.2 601C214.3 601 171.7 601 128.8 601C86 601 43 601 21.5 601L0 601Z" fill="#ea4b4a"></path><path d="M0 515L21.5 519.5C43 524 86 533 128.8 534.5C171.7 536 214.3 530 257.2 529C300 528 343 532 385.8 532.7C428.7 533.3 471.3 530.7 514.2 523C557 515.3 600 502.7 642.8 502.7C685.7 502.7 728.3 515.3 771.2 520.2C814 525 857 522 878.5 520.5L900 519L900 601L878.5 601C857 601 814 601 771.2 601C728.3 601 685.7 601 642.8 601C600 601 557 601 514.2 601C471.3 601 428.7 601 385.8 601C343 601 300 601 257.2 601C214.3 601 171.7 601 128.8 601C86 601 43 601 21.5 601L0 601Z" fill="#f36539"></path><path d="M0 542L21.5 544C43 546 86 550 128.8 548C171.7 546 214.3 538 257.2 539.2C300 540.3 343 550.7 385.8 555.8C428.7 561 471.3 561 514.2 557.7C557 554.3 600 547.7 642.8 549.8C685.7 552 728.3 563 771.2 567.3C814 571.7 857 569.3 878.5 568.2L900 567L900 601L878.5 601C857 601 814 601 771.2 601C728.3 601 685.7 601 642.8 601C600 601 557 601 514.2 601C471.3 601 428.7 601 385.8 601C343 601 300 601 257.2 601C214.3 601 171.7 601 128.8 601C86 601 43 601 21.5 601L0 601Z" fill="#f58025"></path></svg>