<svg id="visual" viewBox="0 0 900 200" width="900" height="200" xmlns="http://www.w3.org/2000/svg" xmlns:xlink="http://www.w3.org/1999/xlink" version="1.1"><rect x="0" y="0" width="900" height="200" fill="#202731"></rect><path d="M0 76L13.7 78.3C27.3 80.7 54.7 85.3 82 88.3C109.3 91.3 136.7 92.7 163.8 90.2C191 87.7 218 81.3 245.2 76.7C272.3 72 299.7 69 327 71.7C354.3 74.3 381.7 82.7 409 82.8C436.3 83 463.7 75 491 77C518.3 79 545.7 91 573 93.2C600.3 95.3 627.7 87.7 654.8 80C682 72.3 709 64.7 736.2 68.3C763.3 72 790.7 87 818 87.3C845.3 87.7 872.7 73.3 886.3 66.2L900 59L900 201L886.3 201C872.7 201 845.3 201 818 201C790.7 201 763.3 201 736.2 201C709 201 682 201 654.8 201C627.7 201 600.3 201 573 201C545.7 201 518.3 201 491 201C463.7 201 436.3 201 409 201C381.7 201 354.3 201 327 201C299.7 201 272.3 201 245.2 201C218 201 191 201 163.8 201C136.7 201 109.3 201 82 201C54.7 201 27.3 201 13.7 201L0 201Z" fill="#c62368"></path><path d="M0 109L13.7 111C27.3 113 54.7 117 82 113C109.3 109 136.7 97 163.8 94.3C191 91.7 218 98.3 245.2 97.8C272.3 97.3 299.7 89.7 327 90C354.3 90.3 381.7 98.7 409 98.8C436.3 99 463.7 91 491 87.5C518.3 84 545.7 85 573 88.2C600.3 91.3 627.7 96.7 654.8 101.5C682 106.3 709 110.7 736.2 112.3C763.3 114 790.7 113 818 112C845.3 111 872.7 110 886.3 109.5L900 109L900 201L886.3 201C872.7 201 845.3 201 818 201C790.7 201 763.3 201 736.2 201C709 201 682 201 654.8 201C627.7 201 600.3 201 573 201C545.7 201 518.3 201 491 201C463.7 201 436.3 201 409 201C381.7 201 354.3 201 327 201C299.7 201 272.3 201 245.2 201C218 201 191 201 163.8 201C136.7 201 109.3 201 82 201C54.7 201 27.3 201 13.7 201L0 201Z" fill="#db345a"></path><path d="M0 114L13.7 116.2C27.3 118.3 54.7 122.7 82 123.8C109.3 125 136.7 123 163.8 119.5C191 116 218 111 245.2 109C272.3 107 299.7 108 327 113.8C354.3 119.7 381.7 130.3 409 135.3C436.3 140.3 463.7 139.7 491 137.7C518.3 135.7 545.7 132.3 573 132.3C600.3 132.3 627.7 135.7 654.8 137.3C682 139 709 139 736.2 135.7C763.3 132.3 790.7 125.7 818 120.5C845.3 115.3 872.7 111.7 886.3 109.8L900 108L900 201L886.3 201C872.7 201 845.3 201 818 201C790.7 201 763.3 201 736.2 201C709 201 682 201 654.8 201C627.7 201 600.3 201 573 201C545.7 201 518.3 201 491 201C463.7 201 436.3 201 409 201C381.7 201 354.3 201 327 201C299.7 201 272.3 201 245.2 201C218 201 191 201 163.8 201C136.7 201 109.3 201 82 201C54.7 201 27.3 201 13.7 201L0 201Z" fill="#ea4b4a"></path><path d="M0 141L13.7 143.5C27.3 146 54.7 151 82 154C109.3 157 136.7 158 163.8 154.7C191 151.3 218 143.7 245.2 140.3C272.3 137 299.7 138 327 139.5C354.3 141 381.7 143 409 146.2C436.3 149.3 463.7 153.7 491 156C518.3 158.3 545.7 158.7 573 154.3C600.3 150 627.7 141 654.8 139.3C682 137.7 709 143.3 736.2 147C763.3 150.7 790.7 152.3 818 152.5C845.3 152.7 872.7 151.3 886.3 150.7L900 150L900 201L886.3 201C872.7 201 845.3 201 818 201C790.7 201 763.3 201 736.2 201C709 201 682 201 654.8 201C627.7 201 600.3 201 573 201C545.7 201 518.3 201 491 201C463.7 201 436.3 201 409 201C381.7 201 354.3 201 327 201C299.7 201 272.3 201 245.2 201C218 201 191 201 163.8 201C136.7 201 109.3 201 82 201C54.7 201 27.3 201 13.7 201L0 201Z" fill="#f36539"></path><path d="M0 174L13.7 174.5C27.3 175 54.7 176 82 176.7C109.3 177.3 136.7 177.7 163.8 176.3C191 175 218 172 245.2 168.5C272.3 165 299.7 161 327 159.3C354.3 157.7 381.7 158.3 409 161.2C436.3 164 463.7 169 491 172.5C518.3 176 545.7 178 573 175.5C600.3 173 627.7 166 654.8 164.3C682 162.7 709 166.3 736.2 168.5C763.3 170.7 790.7 171.3 818 169.8C845.3 168.3 872.7 164.7 886.3 162.8L900 161L900 201L886.3 201C872.7 201 845.3 201 818 201C790.7 201 763.3 201 736.2 201C709 201 682 201 654.8 201C627.7 201 600.3 201 573 201C545.7 201 518.3 201 491 201C463.7 201 436.3 201 409 201C381.7 201 354.3 201 327 201C299.7 201 272.3 201 245.2 201C218 201 191 201 163.8 201C136.7 201 109.3 201 82 201C54.7 201 27.3 201 13.7 201L0 201Z" fill="#f58025"></path></svg>