<svg width="400" height="272" viewBox="0 0 400 272" fill="none" xmlns="http://www.w3.org/2000/svg">
<path d="M0 20C0 8.9543 8.95431 0 20 0H380C391.046 0 400 8.95431 400 20V192C400 203.046 391.046 212 380 212H20C8.95431 212 0 203.046 0 192V20Z" fill="black"/>
<path d="M38 264C38 259.582 41.5817 256 46 256H354C358.418 256 362 259.582 362 264C362 268.418 358.418 272 354 272H46C41.5817 272 38 268.418 38 264Z" fill="black"/>
<path d="M14 28C14 16.9543 22.9543 8 34 8H366C377.046 8 386 16.9543 386 28V184C386 195.046 377.046 204 366 204H34C22.9543 204 14 195.046 14 184V28Z" fill="#EF952B"/>
<path d="M192 212H208V272H192V212Z" fill="black"/>
<path d="M124.263 119.456L119.847 132.416H125.607C126.567 132.416 127.047 132.896 127.047 133.856V138.56C127.047 139.52 126.567 140 125.607 140H105.159C104.199 140 103.719 139.52 103.719 138.56V133.856C103.719 132.896 104.199 132.416 105.159 132.416H110.823L130.023 76.16C130.407 75.264 131.047 74.816 131.943 74.816H141.255C142.151 74.816 142.791 75.264 143.175 76.16L162.567 132.416H169.095C170.055 132.416 170.535 132.896 170.535 133.856V138.56C170.535 139.52 170.055 140 169.095 140H144.999C144.039 140 143.559 139.52 143.559 138.56V133.856C143.559 132.896 144.039 132.416 144.999 132.416H150.951L146.439 119.456H124.263ZM135.303 84.032L126.183 112.256H144.327L135.303 84.032Z" fill="black"/>
<path d="M254.696 140H248.36C247.4 140 246.728 139.552 246.344 138.656L227.72 91.328V132.416H233.768C234.728 132.416 235.208 132.896 235.208 133.856V138.56C235.208 139.52 234.728 140 233.768 140H214.28C213.32 140 212.84 139.52 212.84 138.56V133.856C212.84 132.896 213.32 132.416 214.28 132.416H219.368V82.592H214.28C213.32 82.592 212.84 82.112 212.84 81.152V76.256C212.84 75.296 213.32 74.816 214.28 74.816H231.08C232.104 74.816 232.744 75.264 233 76.16L252.776 127.712L273.032 76.16C273.288 75.264 273.928 74.816 274.952 74.816H290.984C291.944 74.816 292.424 75.296 292.424 76.256V81.152C292.424 82.112 291.944 82.592 290.984 82.592H285.896V132.416H290.984C291.944 132.416 292.424 132.896 292.424 133.856V138.56C292.424 139.52 291.944 140 290.984 140H269.864C268.904 140 268.424 139.52 268.424 138.56V133.856C268.424 132.896 268.904 132.416 269.864 132.416H275.624V91.424L256.712 138.656C256.328 139.552 255.656 140 254.696 140Z" fill="black"/>
</svg>
